# xmcd
#
# Track frame offsets:
#	150
#	26119
#	51316
#	77772
#	95144
#	123203
#	139955
#	170159
#	185686
#	213061
#
# Disc length: 3065 seconds
#
# Revision: 1
# Processed by: cddbd v1.5.1PL0 Copyright (c) Steve Scherf et al.
# Submitted via: dBpowerAMP V4.0
#
DISCID=920bf70a
DTITLE=Raphael Fays - Gipsy Touch
DYEAR=1900
DGENRE=Jazz
TTITLE0=Song for Caroline
TTITLE1=Los Arcos
TTITLE2=Invocation
TTITLE3=Impression Adalouse
TTITLE4=Amanecer
TTITLE5=Angela
TTITLE6=Canela
TTITLE7=Santa Cruz
TTITLE8=Gipsy Touch
TTITLE9=Princesse Noire
EXTD=
EXTT0=
EXTT1=
EXTT2=
EXTT3=
EXTT4=
EXTT5=
EXTT6=
EXTT7=
EXTT8=
EXTT9=
PLAYORDER=
